<svg width="41" height="41" viewBox="0 0 41 41" fill="none" xmlns="http://www.w3.org/2000/svg">
<rect width="41" height="41" rx="20.5" fill="#EB5757"/>
<g clip-path="url(#clip0_148_2336)">
<path d="M34.4462 15.2972H27.6023L21.3442 5.6196C21.0727 5.20653 20.6155 5 20.1583 5C19.7011 5 19.2439 5.20653 18.9724 5.63435L12.7143 15.2972H5.87044C5.0846 15.2972 4.44165 15.961 4.44165 16.7724C4.44165 16.9052 4.45594 17.0379 4.4988 17.1707L8.12792 30.8462C8.45654 32.0854 9.55671 33 10.8712 33H29.4454C30.7599 33 31.8601 32.0854 32.203 30.8462L35.8321 17.1707L35.875 16.7724C35.875 15.961 35.232 15.2972 34.4462 15.2972ZM20.1583 9.10116L24.1589 15.2972H16.1577L20.1583 9.10116ZM29.4454 30.0495L10.8855 30.0643L7.74215 18.2476H32.5888L29.4454 30.0495ZM20.1583 21.1981C18.5866 21.1981 17.3007 22.5258 17.3007 24.1486C17.3007 25.7713 18.5866 27.0991 20.1583 27.0991C21.73 27.0991 23.0159 25.7713 23.0159 24.1486C23.0159 22.5258 21.73 21.1981 20.1583 21.1981Z" fill="white"/>
</g>
<defs>
<clipPath id="clip0_148_2336">
<rect width="32.8" height="32" fill="white" transform="translate(3.07501 1)"/>
</clipPath>
</defs>
</svg>
